<svg width="443" height="390" fill="none" xmlns="http://www.w3.org/2000/svg"><path opacity=".1" d="M53.648 73.736C57.685 49.645 78.535 32 102.96 32h289.683c27.614 0 50 22.386 50 50v258c0 27.614-22.386 50-50 50H59.72c-30.915 0-54.422-27.774-49.312-58.264l43.24-258z" fill="#68C9BA"/><ellipse cx="305.991" cy="91.15" rx="16.848" ry="9.956" transform="rotate(20.718 305.991 91.15)" stroke="#fff" stroke-width="1.5"/><path d="M410.371 126.029c25.725 29.178-4.65 57.352-58.111 58.112-106.287-7.004-130.271-101.134-122.239-122.238 8.033-21.105 31.952-21.68 67.39 21.312 35.439 42.993 80.804 6.342 112.96 42.814z" stroke="#fff" stroke-width="1.5"/></svg>