<svg width="443" height="365" fill="none" xmlns="http://www.w3.org/2000/svg"><path opacity=".1" d="M53.647 48.736C57.684 24.646 78.534 7 102.959 7h289.683c27.614 0 50 22.386 50 50v258c0 27.614-22.386 50-50 50H59.719c-30.916 0-54.422-27.774-49.312-58.264l43.24-258z" fill="#2D9CDB"/><ellipse cx="383.031" cy="313.031" rx="30.925" ry="18.274" transform="rotate(20.718 383.031 313.031)" stroke="#fff" stroke-width="1.5"/><path d="M109.083 254.711c-60.534 12.206-75.159-51.918-33.768-126.021 93.996-140.568 242.448-98.826 265.088-71.03 22.639 27.796 4.446 61.137-82.793 75.733-87.239 14.597-72.859 106.059-148.527 121.318z" stroke="#fff" stroke-width="1.5"/></svg>